<svg width="290" height="32" viewBox="0 0 290 32" fill="none" xmlns="http://www.w3.org/2000/svg">
<path d="M6.56097 20.6339C6.56097 22.7898 8.29104 25.1986 11.5249 25.1986C14.7588 25.1986 16.7019 22.9362 16.7019 19.5426V1.05743H23.2495V19.5559C23.2495 26.5693 18.565 31.1075 11.5116 31.1075C4.45826 31.1075 0.0665412 26.4629 0 20.6339H6.56097Z" fill="white"/>
<path d="M28.0138 1.05743H49.826V6.74006H34.5615V12.7155H48.5618V18.3981H34.5615V24.6929H50.1454V30.3755H28.0138V1.05743Z" fill="white"/>
<path d="M84.6139 26.0636V29.404H53.9117V26.0636H65.5298V19.0502H69.1231V26.0636H84.6139ZM78.705 14.9113H55.8947V11.5976H78.705V4.3978H55.8947V1.05743H82.3382V22.5369H78.705V14.9113Z" fill="white" fill-opacity="0.6"/>
<path d="M107.278 0.338781H110.618V30.3489H107.278V16.0558H102.633V29.0447H89.458V1.05743H92.7718V11.704H99.3195V1.05743H102.633V12.7155H107.278V0.338781ZM99.3328 25.8108V14.9113H92.7851V25.8108H99.3328ZM118.071 0.152466V30.8812H114.69V0.152466H118.071Z" fill="white" fill-opacity="0.6"/>
<path d="M145.166 12.4892L154.775 27.1682L151.794 29.1112L144.128 17.0273C142.039 24.2936 138.339 28.6454 133.482 29.0447V25.4115C139.377 24.44 142.412 13.82 142.438 0.911036L146.071 1.05743C146.071 5.26283 145.752 9.0823 145.166 12.4892ZM162.161 0.152466V30.8812H158.594V14.6185H150.676V11.2782H158.594V0.152466H162.161Z" fill="white" fill-opacity="0.6"/>
<path d="M198.689 25.6202V28.9606H168V25.6202H181.495V18.6733H169.584V15.3995H175.013V4.31369H169.903V0.999939H196.746V4.31369H191.635V15.3995H197.065V18.6733H185.114V25.6202H198.689ZM178.607 15.3995H188.029V4.31369H178.607V15.3995Z" fill="white" fill-opacity="0.6"/>
<path d="M215.846 25.7708C218.761 25.7708 221.928 25.1986 223.805 24.2936V27.5675C221.928 28.499 218.801 29.0447 215.846 29.0447H204.082V1.27036H221.635V4.54419H207.635V13.2877H219.905V16.5615H207.635V25.7708H215.846ZM231.39 0.152466V30.8812H227.797V16.0159H222.115V12.6755H227.797V0.152466H231.39Z" fill="white" fill-opacity="0.6"/>
<path d="M242.077 20.6339C242.077 22.7898 243.807 25.1986 247.041 25.1986C250.275 25.1986 252.218 22.9362 252.218 19.5426V1.05743H258.765V19.5559C258.765 26.5693 254.081 31.1075 247.028 31.1075C239.974 31.1075 235.583 26.4629 235.516 20.6339H242.077Z" fill="white"/>
<path d="M263.157 1.05743H269.705V17.4C269.705 22.0712 272.3 25.2119 276.585 25.2119C280.871 25.2119 283.452 22.0845 283.452 17.4V1.05743H290V17.4C290 25.7176 284.637 31.1075 276.585 31.1075C268.534 31.1075 263.157 25.7043 263.157 17.4V1.05743Z" fill="white"/>
</svg>
